<svg xmlns="http://www.w3.org/2000/svg" xmlns:xlink="http://www.w3.org/1999/xlink" xmlns:s="https://github.com/nturley/netlistsvg" width="379" height="206">
  <style>svg {
    stroke:#000;
    fill:none;
  }
  text {
    fill:#000;
    stroke:none;
    font-size:10px;
    font-weight: bold;
    font-family: "Courier New", monospace;
  }
  .nodelabel {
    text-anchor: middle;
  }
  .inputPortLabel {
    text-anchor: end;
  }
  .splitjoinBody {
    fill:#000;
  }</style>
  <g s:type="and" transform="translate(272,168)" s:width="30" s:height="25" id="cell_$and$./top.v:10$2">
    <s:alias val="$and"/>
    <s:alias val="$logic_and"/>
    <s:alias val="$_AND_"/>
    <path d="M0,0 L0,25 L15,25 A15 12.5 0 0 0 15,0 Z" class="cell_$and$./top.v:10$2"/>
    <g s:x="0" s:y="5" s:pid="A"/>
    <g s:x="0" s:y="20" s:pid="B"/>
    <g s:x="30" s:y="12.5" s:pid="Y"/>
  </g>
  <g s:type="and" transform="translate(142,27)" s:width="30" s:height="25" id="cell_$and$./top.v:11$4">
    <s:alias val="$and"/>
    <s:alias val="$logic_and"/>
    <s:alias val="$_AND_"/>
    <path d="M0,0 L0,25 L15,25 A15 12.5 0 0 0 15,0 Z" class="cell_$and$./top.v:11$4"/>
    <g s:x="0" s:y="5" s:pid="A"/>
    <g s:x="0" s:y="20" s:pid="B"/>
    <g s:x="30" s:y="12.5" s:pid="Y"/>
  </g>
  <g s:type="and" transform="translate(142,87)" s:width="30" s:height="25" id="cell_$and$./top.v:11$6">
    <s:alias val="$and"/>
    <s:alias val="$logic_and"/>
    <s:alias val="$_AND_"/>
    <path d="M0,0 L0,25 L15,25 A15 12.5 0 0 0 15,0 Z" class="cell_$and$./top.v:11$6"/>
    <g s:x="0" s:y="5" s:pid="A"/>
    <g s:x="0" s:y="20" s:pid="B"/>
    <g s:x="30" s:y="12.5" s:pid="Y"/>
  </g>
  <g s:type="and" transform="translate(207,102)" s:width="30" s:height="25" id="cell_$and$./top.v:11$9">
    <s:alias val="$and"/>
    <s:alias val="$logic_and"/>
    <s:alias val="$_AND_"/>
    <path d="M0,0 L0,25 L15,25 A15 12.5 0 0 0 15,0 Z" class="cell_$and$./top.v:11$9"/>
    <g s:x="0" s:y="5" s:pid="A"/>
    <g s:x="0" s:y="20" s:pid="B"/>
    <g s:x="30" s:y="12.5" s:pid="Y"/>
  </g>
  <g s:type="not" transform="translate(207,163)" s:width="30" s:height="20" id="cell_$not$./top.v:10$1">
    <s:alias val="$_NOT_"/>
    <s:alias val="$not"/>
    <s:alias val="$logic_not"/>
    <path d="M0,0 L0,20 L20,10 Z" class="cell_$not$./top.v:10$1"/>
    <circle cx="23" cy="10" r="3" class="cell_$not$./top.v:10$1"/>
    <g s:x="0" s:y="10" s:pid="A"/>
    <g s:x="25" s:y="10" s:pid="Y"/>
  </g>
  <g s:type="not" transform="translate(77,97)" s:width="30" s:height="20" id="cell_$not$./top.v:11$3">
    <s:alias val="$_NOT_"/>
    <s:alias val="$not"/>
    <s:alias val="$logic_not"/>
    <path d="M0,0 L0,20 L20,10 Z" class="cell_$not$./top.v:11$3"/>
    <circle cx="23" cy="10" r="3" class="cell_$not$./top.v:11$3"/>
    <g s:x="0" s:y="10" s:pid="A"/>
    <g s:x="25" s:y="10" s:pid="Y"/>
  </g>
  <g s:type="or" transform="translate(272,42)" s:width="30" s:height="25" id="cell_$or$./top.v:11$10">
    <s:alias val="$or"/>
    <s:alias val="$logic_or"/>
    <s:alias val="$_OR_"/>
    <path d="M0,25 L0,25 L15,25 A15 12.5 0 0 0 15,0 L0,0" class="cell_$or$./top.v:11$10"/>
    <path d="M0,0 A30 25 0 0 1 0,25" class="cell_$or$./top.v:11$10"/>
    <g s:x="3" s:y="5" s:pid="A"/>
    <g s:x="3" s:y="20" s:pid="B"/>
    <g s:x="30" s:y="12.5" s:pid="Y"/>
  </g>
  <g s:type="or" transform="translate(207,34.5)" s:width="30" s:height="25" id="cell_$or$./top.v:11$7">
    <s:alias val="$or"/>
    <s:alias val="$logic_or"/>
    <s:alias val="$_OR_"/>
    <path d="M0,25 L0,25 L15,25 A15 12.5 0 0 0 15,0 L0,0" class="cell_$or$./top.v:11$7"/>
    <path d="M0,0 A30 25 0 0 1 0,25" class="cell_$or$./top.v:11$7"/>
    <g s:x="3" s:y="5" s:pid="A"/>
    <g s:x="3" s:y="20" s:pid="B"/>
    <g s:x="30" s:y="12.5" s:pid="Y"/>
  </g>
  <g s:type="inputExt" transform="translate(12,97)" s:width="30" s:height="20" id="cell_Ei">
    <text x="15" y="-4" class="nodelabel cell_Ei" s:attribute="ref">Ei</text>
    <s:alias val="$_inputExt_"/>
    <path d="M0,0 L0,20 L15,20 L30,10 L15,0 Z" class="cell_Ei"/>
    <g s:x="28" s:y="10" s:pid="Y"/>
  </g>
  <g s:type="inputExt" transform="translate(77,22)" s:width="30" s:height="20" id="cell_A">
    <text x="15" y="-4" class="nodelabel cell_A" s:attribute="ref">A</text>
    <s:alias val="$_inputExt_"/>
    <path d="M0,0 L0,20 L15,20 L30,10 L15,0 Z" class="cell_A"/>
    <g s:x="28" s:y="10" s:pid="Y"/>
  </g>
  <g s:type="inputExt" transform="translate(77,163)" s:width="30" s:height="20" id="cell_B">
    <text x="15" y="-4" class="nodelabel cell_B" s:attribute="ref">B</text>
    <s:alias val="$_inputExt_"/>
    <path d="M0,0 L0,20 L15,20 L30,10 L15,0 Z" class="cell_B"/>
    <g s:x="28" s:y="10" s:pid="Y"/>
  </g>
  <g s:type="inputExt" transform="translate(142,143)" s:width="30" s:height="20" id="cell_C">
    <text x="15" y="-4" class="nodelabel cell_C" s:attribute="ref">C</text>
    <s:alias val="$_inputExt_"/>
    <path d="M0,0 L0,20 L15,20 L30,10 L15,0 Z" class="cell_C"/>
    <g s:x="28" s:y="10" s:pid="Y"/>
  </g>
  <g s:type="outputExt" transform="translate(337,170.5)" s:width="30" s:height="20" id="cell_CM">
    <text x="15" y="-4" class="nodelabel cell_CM" s:attribute="ref">CM</text>
    <s:alias val="$_outputExt_"/>
    <path d="M30,0 L30,20 L15,20 L0,10 L15,0 Z" class="cell_CM"/>
    <g s:x="0" s:y="10" s:pid="A"/>
  </g>
  <g s:type="outputExt" transform="translate(337,44.5)" s:width="30" s:height="20" id="cell_M">
    <text x="15" y="-4" class="nodelabel cell_M" s:attribute="ref">M</text>
    <s:alias val="$_outputExt_"/>
    <path d="M30,0 L30,20 L15,20 L0,10 L15,0 Z" class="cell_M"/>
    <g s:x="0" s:y="10" s:pid="A"/>
  </g>
  <line x1="232" x2="272" y1="173" y2="173" class="net_8"/>
  <line x1="170" x2="182" y1="153" y2="153" class="net_5"/>
  <line x1="182" x2="182" y1="153" y2="193" class="net_5"/>
  <line x1="182" x2="247" y1="193" y2="193" class="net_5"/>
  <line x1="247" x2="247" y1="193" y2="188" class="net_5"/>
  <circle cx="182" cy="153" r="2" style="fill:#000" class="net_5"/>
  <line x1="247" x2="272" y1="188" y2="188" class="net_5"/>
  <line x1="170" x2="182" y1="153" y2="153" class="net_5"/>
  <line x1="182" x2="182" y1="153" y2="107" class="net_5"/>
  <line x1="182" x2="207" y1="107" y2="107" class="net_5"/>
  <line x1="105" x2="142" y1="32" y2="32" class="net_3"/>
  <line x1="102" x2="127" y1="107" y2="107" class="net_9"/>
  <line x1="127" x2="127" y1="107" y2="47" class="net_9"/>
  <circle cx="127" cy="107" r="2" style="fill:#000" class="net_9"/>
  <line x1="127" x2="142" y1="47" y2="47" class="net_9"/>
  <line x1="102" x2="142" y1="107" y2="107" class="net_9"/>
  <line x1="102" x2="127" y1="107" y2="107" class="net_9"/>
  <line x1="127" x2="127" y1="107" y2="122" class="net_9"/>
  <line x1="127" x2="207" y1="122" y2="122" class="net_9"/>
  <line x1="105" x2="117" y1="173" y2="173" class="net_4"/>
  <line x1="117" x2="117" y1="173" y2="92" class="net_4"/>
  <circle cx="117" cy="173" r="2" style="fill:#000" class="net_4"/>
  <line x1="117" x2="142" y1="92" y2="92" class="net_4"/>
  <line x1="105" x2="207" y1="173" y2="173" class="net_4"/>
  <line x1="40" x2="77" y1="107" y2="107" class="net_2"/>
  <line x1="237" x2="275" y1="47" y2="47" class="net_13"/>
  <line x1="237" x2="247" y1="114.5" y2="114.5" class="net_12"/>
  <line x1="247" x2="247" y1="114.5" y2="62" class="net_12"/>
  <line x1="247" x2="275" y1="62" y2="62" class="net_12"/>
  <line x1="172" x2="210" y1="39.5" y2="39.5" class="net_10"/>
  <line x1="172" x2="182" y1="99.5" y2="99.5" class="net_11"/>
  <line x1="182" x2="182" y1="99.5" y2="54.5" class="net_11"/>
  <line x1="182" x2="210" y1="54.5" y2="54.5" class="net_11"/>
  <line x1="302" x2="337" y1="180.5" y2="180.5" class="net_6"/>
  <line x1="302" x2="337" y1="54.5" y2="54.5" class="net_7"/>
</svg>
